<?xml version="1.0" standalone="no"?>
<!DOCTYPE svg PUBLIC "-//W3C//DTD SVG 20010904//EN"
 "http://www.w3.org/TR/2001/REC-SVG-20010904/DTD/svg10.dtd">
<svg version="1.0" xmlns="http://www.w3.org/2000/svg"
 width="292.000000pt" height="292.000000pt" viewBox="0 0 292.000000 292.000000"
 preserveAspectRatio="xMidYMid meet">
<metadata>
Created by potrace 1.14, written by Peter Selinger 2001-2017
</metadata>
<g transform="translate(0.000000,292.000000) scale(0.100000,-0.100000)"
fill="#000000" stroke="none">
<path d="M1314 2734 c-121 -15 -165 -25 -269 -66 -194 -76 -322 -186 -437
-378 -46 -76 -105 -274 -116 -390 -9 -89 -9 -800 0 -881 18 -152 103 -391 168
-470 11 -13 23 -28 27 -34 37 -48 71 -84 105 -111 35 -27 45 -31 68 -22 23 7
35 28 74 119 60 140 64 163 39 197 -72 100 -115 241 -128 417 -7 94 -7 613 0
700 16 217 67 350 175 455 119 118 273 171 483 165 62 -1 129 -6 149 -10 72
-14 81 -6 132 115 25 60 46 116 46 125 0 14 -35 52 -45 48 -3 -1 -18 2 -35 7
-85 24 -290 31 -436 14z"/>
<path d="M2047 2553 c-14 -23 -119 -280 -119 -293 -1 -8 22 -52 50 -96 28 -45
57 -97 65 -115 24 -59 33 -62 188 -61 168 1 182 7 178 82 -9 145 -120 331
-272 452 -46 36 -80 47 -90 31z"/>
<path d="M1636 1560 c-17 -20 -106 -233 -106 -254 0 -20 -24 -18 290 -20 l265
-1 -1 -100 c0 -145 -11 -228 -40 -313 -86 -257 -310 -394 -634 -386 -107 2
-162 8 -182 20 -20 13 -48 -23 -83 -108 -21 -51 -42 -97 -47 -103 -12 -14 -10
-61 5 -72 56 -45 392 -61 568 -28 69 13 88 18 134 32 309 93 518 312 602 629
24 92 26 118 30 380 l5 280 -23 28 -24 27 -373 2 c-321 2 -375 0 -386 -13z"/>
</g>
</svg>
