<?xml version="1.0" standalone="no"?>
<!DOCTYPE svg PUBLIC "-//W3C//DTD SVG 20010904//EN"
 "http://www.w3.org/TR/2001/REC-SVG-20010904/DTD/svg10.dtd">
<svg version="1.0" xmlns="http://www.w3.org/2000/svg"
 width="292.000000pt" height="292.000000pt" viewBox="0 0 292.000000 292.000000"
 preserveAspectRatio="xMidYMid meet">
<metadata>
Created by potrace 1.14, written by Peter Selinger 2001-2017
</metadata>
<g transform="translate(0.000000,292.000000) scale(0.100000,-0.100000)"
fill="#000000" stroke="none">
<path d="M1285 2888 c-419 -63 -708 -302 -829 -685 -56 -178 -61 -239 -61
-718 0 -495 4 -544 54 -741 37 -143 141 -324 248 -431 109 -108 136 -99 205
68 79 191 77 169 26 252 -72 117 -109 237 -125 407 -10 110 -9 739 1 850 25
275 113 448 282 556 160 102 349 135 599 103 85 -10 98 -10 113 5 10 8 40 70
67 137 47 114 48 122 34 147 -11 20 -27 30 -69 39 -146 32 -373 37 -545 11z"/>
<path d="M2145 2420 c-30 -11 -95 -87 -95 -109 0 -10 27 -45 59 -78 l60 -60
-60 -59 c-35 -35 -59 -67 -59 -80 0 -22 89 -114 110 -114 7 0 40 27 75 60 l63
61 58 -55 c80 -77 87 -78 145 -18 27 28 49 58 49 67 0 9 -27 44 -60 78 l-61
61 61 61 c33 33 60 68 60 76 0 22 -58 87 -92 105 -29 15 -30 15 -95 -49 l-65
-63 -64 63 c-34 35 -64 63 -66 62 -2 0 -12 -4 -23 -9z"/>
<path d="M1663 1564 c-20 -20 -22 -30 -20 -144 3 -170 -19 -158 299 -157 l253
0 1 -129 c1 -270 -55 -442 -189 -578 -166 -168 -467 -238 -751 -176 -23 5 -47
5 -56 0 -19 -10 -125 -254 -123 -282 2 -27 24 -44 68 -52 22 -5 49 -10 61 -12
65 -12 190 -20 287 -19 464 8 814 202 989 550 33 65 84 217 92 275 4 25 10 71
14 102 12 85 13 548 1 585 -19 60 -3 58 -473 58 -431 1 -431 1 -453 -21z"/>
</g>
</svg>
