<?xml version="1.0" standalone="no"?>
<!DOCTYPE svg PUBLIC "-//W3C//DTD SVG 20010904//EN"
 "http://www.w3.org/TR/2001/REC-SVG-20010904/DTD/svg10.dtd">
<svg version="1.0" xmlns="http://www.w3.org/2000/svg"
 width="292.000000pt" height="292.000000pt" viewBox="0 0 292.000000 292.000000"
 preserveAspectRatio="xMidYMid meet">
<metadata>
Created by potrace 1.14, written by Peter Selinger 2001-2017
</metadata>
<g transform="translate(0.000000,292.000000) scale(0.100000,-0.100000)"
fill="#000000" stroke="none">
<path d="M69 2232 c-10 -7 -19 -22 -19 -34 0 -11 84 -140 187 -287 175 -249
276 -394 297 -425 8 -12 -182 -291 -454 -666 -56 -77 -65 -100 -47 -125 11
-15 29 -19 93 -20 43 -1 89 1 100 6 18 6 237 303 405 547 34 51 45 61 53 49 6
-8 103 -143 216 -300 141 -197 213 -289 230 -295 14 -4 59 -8 101 -7 80 1 109
13 109 45 0 9 -40 73 -88 141 -49 68 -166 233 -261 367 l-172 243 91 132 c329
477 400 582 400 598 0 39 -68 52 -197 40 -13 -1 -49 -47 -145 -186 -183 -265
-280 -399 -286 -396 -4 3 -94 129 -201 280 -106 152 -200 283 -207 291 -19 20
-177 22 -205 2z"/>
<path d="M1833 2228 c-12 -14 -17 -69 -14 -161 1 -58 9 -66 159 -167 59 -40
141 -96 182 -125 41 -28 162 -111 268 -184 l193 -133 -138 -95 c-76 -52 -156
-107 -178 -121 -22 -15 -44 -30 -50 -35 -11 -9 -247 -170 -347 -237 -37 -25
-72 -54 -78 -65 -6 -11 -11 -60 -12 -109 -2 -96 8 -116 60 -116 21 0 139 75
352 224 41 28 127 87 190 131 63 43 151 103 195 134 44 30 109 75 145 99 122
84 139 110 136 202 -4 91 -5 92 -236 250 -91 63 -259 179 -375 258 -115 80
-246 170 -290 200 -84 57 -142 75 -162 50z"/>
</g>
</svg>
