<?xml version="1.0" standalone="no"?>
<!DOCTYPE svg PUBLIC "-//W3C//DTD SVG 20010904//EN"
 "http://www.w3.org/TR/2001/REC-SVG-20010904/DTD/svg10.dtd">
<svg version="1.0" xmlns="http://www.w3.org/2000/svg"
 width="292.000000pt" height="292.000000pt" viewBox="0 0 292.000000 292.000000"
 preserveAspectRatio="xMidYMid meet">
<metadata>
Created by potrace 1.14, written by Peter Selinger 2001-2017
</metadata>
<g transform="translate(0.000000,292.000000) scale(0.100000,-0.100000)"
fill="#000000" stroke="none">
<path d="M1350 2900 c-190 -20 -377 -86 -520 -181 -241 -161 -381 -410 -426
-754 -13 -99 -15 -200 -11 -565 4 -479 8 -516 68 -698 52 -161 179 -356 282
-434 73 -56 97 -36 171 144 31 75 56 139 56 143 0 4 -20 39 -44 79 -55 89 -92
191 -113 314 -25 144 -24 894 0 1032 20 110 40 175 74 245 127 256 421 374
805 323 110 -15 107 -17 173 146 46 111 48 120 34 145 -12 22 -27 29 -99 43
-103 21 -334 30 -450 18z"/>
<path d="M2163 2692 c-15 -9 -143 -310 -143 -335 0 -10 19 -45 41 -79 23 -33
58 -93 78 -132 21 -42 46 -76 61 -84 18 -9 67 -12 171 -10 128 3 150 5 168 22
52 47 4 230 -102 386 -41 60 -141 164 -198 206 -49 36 -57 38 -76 26z"/>
<path d="M1687 1573 c-14 -23 -117 -277 -117 -288 0 -7 7 -16 16 -19 9 -3 151
-6 316 -6 l301 0 -6 -157 c-8 -195 -24 -273 -81 -388 -124 -250 -364 -369
-708 -351 -73 4 -153 8 -178 9 l-45 2 -52 -120 c-64 -148 -66 -184 -11 -202
123 -40 504 -43 668 -5 407 95 669 347 771 743 20 76 23 116 26 414 4 325 4
330 -17 353 l-21 22 -429 0 c-236 0 -431 -3 -433 -7z"/>
</g>
</svg>
