<?xml version="1.0" standalone="no"?>
<!DOCTYPE svg PUBLIC "-//W3C//DTD SVG 20010904//EN"
 "http://www.w3.org/TR/2001/REC-SVG-20010904/DTD/svg10.dtd">
<svg version="1.0" xmlns="http://www.w3.org/2000/svg"
 width="292.000000pt" height="292.000000pt" viewBox="0 0 292.000000 292.000000"
 preserveAspectRatio="xMidYMid meet">
<metadata>
Created by potrace 1.14, written by Peter Selinger 2001-2017
</metadata>
<g transform="translate(0.000000,292.000000) scale(0.100000,-0.100000)"
fill="#000000" stroke="none">
<path d="M88 2460 c-33 -8 -53 -48 -39 -80 6 -14 103 -155 216 -315 113 -159
210 -298 217 -309 7 -10 20 -28 29 -40 65 -88 110 -160 106 -171 -5 -12 -175
-254 -201 -286 -7 -9 -31 -42 -53 -75 -22 -32 -111 -158 -197 -279 -86 -121
-156 -228 -156 -237 0 -10 9 -27 20 -38 17 -17 33 -20 118 -20 77 0 101 4 118
18 17 14 128 163 214 289 85 124 295 413 300 413 7 0 33 -36 301 -410 104
-146 199 -274 210 -285 17 -17 35 -20 125 -23 89 -3 109 0 125 14 37 33 31 46
-113 250 -149 211 -367 518 -376 529 -4 6 -29 40 -55 77 l-48 68 91 132 c50
73 121 176 157 228 225 323 333 485 333 495 0 7 -8 23 -19 36 -17 21 -26 22
-113 22 -53 0 -103 -5 -111 -9 -13 -7 -256 -348 -463 -647 l-33 -47 -146 207
c-80 115 -152 216 -160 226 -8 9 -15 19 -15 21 0 11 -164 232 -177 240 -18 10
-169 14 -205 6z"/>
<path d="M1660 2442 c-21 -17 -23 -28 -25 -121 -1 -80 3 -108 15 -129 14 -22
278 -211 500 -357 25 -16 47 -32 50 -35 3 -3 48 -34 100 -69 52 -36 137 -94
189 -129 l94 -65 -29 -21 c-48 -36 -377 -262 -729 -501 -193 -131 -187 -123
-190 -241 -2 -107 6 -140 39 -151 44 -15 61 -8 191 82 50 34 279 191 510 350
482 330 500 344 520 392 23 54 19 147 -7 194 -24 44 -11 34 -578 423 -228 157
-419 288 -425 293 -16 13 -118 79 -142 92 -31 16 -57 14 -83 -7z"/>
</g>
</svg>
